Coordinates
version=1
nRows=17
nColumns=36
inDegrees=yes

Units are S.I. units (second, meters, Newtons, ...)
If the header above contains a line with 'inDegrees', this indicates whether rotational values are in degrees (yes) or radians (no).

endheader
time	pelvis_tilt	pelvis_list	pelvis_rotation	pelvis_tx	pelvis_ty	pelvis_tz	hip_flexion_r	hip_adduction_r	hip_rotation_r	knee_angle_r	knee_angle_r_beta	ankle_angle_r	subtalar_angle_r	mtp_angle_r	hip_flexion_l	hip_adduction_l	hip_rotation_l	knee_angle_l	knee_angle_l_beta	ankle_angle_l	subtalar_angle_l	mtp_angle_l	lumbar_extension	lumbar_bending	lumbar_rotation	arm_flex_r	arm_add_r	arm_rot_r	elbow_flex_r	pro_sup_r	arm_flex_l	arm_add_l	arm_rot_l	elbow_flex_l	pro_sup_l
      0.00000000	     -6.59568123	     -1.76606927	     -0.69649585	     -0.15035004	      0.96183476	     -0.68897213	      5.57277764	     -5.89900403	      3.46857744	      1.57099193	      0.02741898	      3.83640215	     -2.91333235	     -6.01570400	      6.05933537	     -8.42735648	     -8.66384594	      2.40057973	      0.04189802	      4.79395951	      4.05972872	     -6.01570400	      1.24441636	     -0.84782614	     -0.72031114	     14.73423636	    -27.14932809	     -1.28337698	    115.76636544	    106.17863034	     16.99071752	    -21.88851181	     -0.21777332	    115.66823950	    106.04270783
      0.01000000	     -6.52311913	     -1.76878852	     -0.68670044	     -0.15019143	      0.96191787	     -0.68894233	      5.49119400	     -5.90316681	      3.27032904	      1.59325324	      0.02780751	      4.01461929	     -2.49988935	     -6.29508384	      5.98029391	     -8.44001565	     -8.84961057	      2.40897639	      0.04204457	      4.74910629	      4.29002685	     -6.29508384	      1.18244914	     -0.84936340	     -0.72100239	     14.73416654	    -27.14851079	     -1.13503920	    116.00411756	    103.42553926	     17.01076629	    -21.93887868	      0.01129883	    115.93525954	    103.36470585
      0.02000000	     -6.55915862	     -1.77730866	     -0.70074945	     -0.15011381	      0.96186005	     -0.68890042	      5.51331693	     -5.88498923	      3.38989217	      1.57347934	      0.02746240	      3.93577936	     -2.70678231	     -6.65202504	      6.02370043	     -8.45704884	     -8.87398800	      2.44313949	      0.04264083	      4.95038448	      4.43499647	     -6.65202504	      1.24811599	     -0.83927803	     -0.69828202	     14.70558154	    -27.12243682	     -1.37549848	    115.78075153	    106.54684557	     17.00813323	    -21.91073810	     -0.24531118	    115.57571222	    106.42516761
      0.03000000	     -6.56057239	     -1.79367714	     -0.71644679	     -0.15007716	      0.96187625	     -0.68886619	      5.49391472	     -5.86264684	      3.52032390	      1.52991070	      0.02670198	      3.79853261	     -2.92171240	     -6.92144487	      6.04264705	     -8.49028240	     -8.99511631	      2.49411762	      0.04353056	      5.09119385	      4.67359182	     -6.92144487	      1.26076180	     -0.82736784	     -0.68623387	     14.69456758	    -27.13461688	     -1.32201739	    115.83537360	    105.42816137	     17.01263182	    -21.90688549	     -0.17173575	    115.69770720	    105.36794995
      0.04000000	     -6.53930979	     -1.79022000	     -0.67514130	     -0.14999832	      0.96191820	     -0.68897555	      5.47167626	     -5.88041419	      3.32347133	      1.55852526	      0.02720140	      3.94139998	     -2.58791212	     -6.97609972	      6.00367497	     -8.46466570	     -8.78225855	      2.45157610	      0.04278807	      4.96339295	      4.34852193	     -6.97609972	      1.24777804	     -0.82516638	     -0.73117035	     14.70684521	    -27.12883512	     -1.27905455	    115.91982548	    104.60521046	     17.00293404	    -21.89579871	     -0.11644326	    115.78172193	    104.59312864
      0.05000000	     -6.52764535	     -1.78422368	     -0.71141947	     -0.14999394	      0.96197328	     -0.68887283	      5.44316060	     -5.87208489	      3.58865720	      1.51563376	      0.02645280	      3.73173103	     -3.04986499	     -7.08595091	      5.98638151	     -8.46448318	     -8.78198857	      2.46255412	      0.04297968	      4.89800280	      4.27740824	     -7.08595091	      1.23905055	     -0.84088063	     -0.67862465	     14.70757512	    -27.14524244	     -1.36097612	    115.80859744	    105.99731784	     17.05824473	    -21.92327357	     -0.17840548	    115.61948738	    105.95288065
      0.06000000	     -6.50550649	     -1.77669171	     -0.68769885	     -0.14987779	      0.96201586	     -0.68890996	      5.42858400	     -5.89332905	      3.31927266	      1.55609624	      0.02715900	      4.00995686	     -2.47182674	     -7.12842556	      5.96021822	     -8.45423457	     -8.76346974	      2.46212388	      0.04297217	      4.97204541	      4.37571592	     -7.12842556	      1.22659719	     -0.84612438	     -0.69650082	     14.69598427	    -27.14256019	     -1.32406045	    115.96003306	    104.40100010	     17.05170410	    -21.89516521	     -0.12270212	    115.79831879	    104.40986434
      0.07000000	     -6.51044332	     -1.78684845	     -0.68639693	     -0.14988842	      0.96203642	     -0.68887633	      5.41978321	     -5.87326027	      3.46256651	      1.52576356	      0.02662960	      3.71656113	     -2.95059052	     -7.19755027	      5.97252030	     -8.46513737	     -8.69937843	      2.47129212	      0.04313218	      4.86853359	      4.23389710	     -7.19755027	      1.23935732	     -0.84215645	     -0.69703246	     14.72975422	    -27.15537689	     -1.30769878	    115.83192154	    105.62201796	     17.13105631	    -21.91277462	     -0.10521033	    115.60963756	    105.67558936
      0.08000000	     -6.50559396	     -1.77156382	     -0.68148753	     -0.14982144	      0.96207928	     -0.68893686	      5.42036496	     -5.90198597	      3.34211483	      1.54404300	      0.02694863	      3.89585298	     -2.62873398	     -7.35449464	      5.97292645	     -8.44439373	     -8.68185444	      2.48877883	      0.04343739	      4.87893902	      4.20970849	     -7.35449464	      1.24443620	     -0.84873524	     -0.69224066	     14.72506689	    -27.16323153	     -1.41659456	    115.80120116	    106.43241173	     17.11160710	    -21.88851833	     -0.20416092	    115.56427933	    106.19334082
      0.09000000	     -6.50349002	     -1.76494502	     -0.69245787	     -0.14986805	      0.96210772	     -0.68892590	      5.40985363	     -5.90874993	      3.50917291	      1.52268914	      0.02657594	      3.79943787	     -2.86960130	     -7.39933462	      5.97393395	     -8.43259611	     -8.56497913	      2.49279950	      0.04350756	      4.78805081	      3.97424335	     -7.39933462	      1.23300411	     -0.85356467	     -0.67868015	     14.74965980	    -27.17761905	     -1.39848251	    115.83222851	    106.17774762	     17.13680422	    -21.88881163	     -0.19979433	    115.58569786	    106.04549073
      0.10000000	     -6.46986424	     -1.77509587	     -0.67735923	     -0.14985309	      0.96217899	     -0.68893741	      5.38452573	     -5.90157681	      3.40288396	      1.54764178	      0.02701144	      3.88160199	     -2.63064415	     -7.43122296	      5.96236237	     -8.45029379	     -8.61540179	      2.53815558	      0.04429917	      4.87799428	      4.14781694	     -7.43122296	      1.19603163	     -0.84961125	     -0.67484899	     14.74796852	    -27.18575915	     -1.42004118	    115.82629482	    106.14216344	     17.20013559	    -21.87689853	     -0.19184650	    115.55891103	    106.27560148
      0.11000000	     -6.39960012	     -1.77283337	     -0.65143070	     -0.14984628	      0.96227748	     -0.68897422	      5.32931697	     -5.91301941	      3.09689890	      1.59119005	      0.02777151	      4.08801490	     -2.14618394	     -7.44530710	      5.88131439	     -8.43116527	     -8.47680910	      2.51694966	      0.04392906	      4.73414485	      3.90797918	     -7.44530710	      1.09932730	     -0.85804955	     -0.69881562	     14.79610067	    -27.19268926	     -1.22921375	    116.08471688	    102.94482665	     17.24824404	    -21.91105985	      0.03659297	    115.89374189	    103.13846284
      0.12000000	     -6.44978276	     -1.78952177	     -0.68843059	     -0.14994943	      0.96224193	     -0.68890973	      5.39057801	     -5.87807091	      3.36435456	      1.57886235	      0.02755635	      3.89088595	     -2.61996027	     -7.47582332	      5.98094214	     -8.46975957	     -8.61544259	      2.61015592	      0.04555581	      4.86149440	      4.11313990	     -7.47582332	      1.14575163	     -0.84130572	     -0.66143733	     14.82195588	    -27.21621293	     -1.42827009	    115.81143155	    106.59255034	     17.27179439	    -21.93301463	     -0.13002724	    115.57871430	    106.02563975
      0.13000000	     -6.46916286	     -1.78111351	     -0.73751915	     -0.15003013	      0.96223430	     -0.68884213	      5.41897328	     -5.87879966	      3.61537465	      1.56564322	      0.02732563	      3.75910953	     -2.96990829	     -7.48616793	      6.00779482	     -8.46732222	     -8.67597247	      2.62559883	      0.04582534	      4.86186095	      4.10229626	     -7.48616793	      1.15988864	     -0.85008141	     -0.60934587	     14.86069140	    -27.22591706	     -1.42202100	    115.81317469	    106.60228418	     17.30084987	    -21.95462363	     -0.08468337	    115.56189977	    105.90411107
      0.14000000	     -6.43652821	     -1.79615014	     -0.71486855	     -0.15012018	      0.96230685	     -0.68889603	      5.40583174	     -5.87356786	      3.47371969	      1.59595705	      0.02785471	      3.80701170	     -2.72795299	     -7.49058328	      5.99066785	     -8.48026932	     -8.55640288	      2.63056690	      0.04591205	      4.77734982	      3.95666101	     -7.49058328	      1.10860790	     -0.83613276	     -0.63249587	     14.92830908	    -27.26133783	     -1.38365320	    115.76870766	    106.52587694	     17.36953144	    -21.99862654	     -0.05631464	    115.55517418	    106.21488529
      0.15000000	     -6.40965913	     -1.79836450	     -0.75449002	     -0.15028387	      0.96236130	     -0.68884565	      5.37210796	     -5.85725161	      3.81850475	      1.55528066	      0.02714477	      3.52586694	     -3.34023439	     -7.49245511	      5.98296979	     -8.48829881	     -8.61783826	      2.66930692	      0.04658819	      4.78617005	      3.93271380	     -7.49245511	      1.04181060	     -0.83457006	     -0.57389984	     14.98884156	    -27.32830265	     -1.21822865	    115.93047505	    104.19027742	     17.46579344	    -22.04950880	      0.16804596	    115.79832164	    103.79438676
      0.16000000	     -6.37057026	     -1.79508567	     -0.78501587	     -0.15044067	      0.96244756	     -0.68877977	      5.35792357	     -5.85264811	      3.84432434	      1.58017271	      0.02757922	      3.53513172	     -3.35093429	     -7.49483374	      5.99423201	     -8.51367420	     -8.93314938	      2.76172012	      0.04820111	      4.96827062	      4.47804639	     -7.49483374	      0.97101654	     -0.83593743	     -0.54170542	     15.13396445	    -27.40188404	     -1.19739091	    115.81592572	    105.07382169	     17.56883639	    -22.12001135	      0.21939412	    115.68510990	    104.45041331
